<svg id="Layer_1" data-name="Layer 1" xmlns="http://www.w3.org/2000/svg" xmlns:xlink="http://www.w3.org/1999/xlink" viewBox="0 0 718.83 595.28"><defs><style>.cls-1{fill:url(#linear-gradient);}.cls-2{fill:#865f43;}.cls-3{fill:#735439;opacity:0.21;}.cls-3,.cls-5{isolation:isolate;}.cls-4{fill:#a97d58;}.cls-5{fill:#f47721;opacity:0.5;}.cls-6{fill:#8b6848;}.cls-7{fill:#9d6a28;}.cls-8{fill:none;stroke:#231f20;stroke-miterlimit:10;stroke-width:13px;}</style><linearGradient id="linear-gradient" y1="297.64" x2="718.83" y2="297.64" gradientUnits="userSpaceOnUse"><stop offset="0" stop-color="#1e6db6"/><stop offset="0.01" stop-color="#093655"/></linearGradient></defs><rect class="cls-1" width="718.83" height="595.28"/><g id="Artwork_3" data-name="Artwork 3"><path class="cls-2" d="M435,421.56l-14.1-5.93.48-72.68,13.62-.88Q435,381.81,435,421.56Z"/><path class="cls-3" d="M295.14,419.89l-12.15.26q0-38.46.08-76.92l11.68.25Z"/><path class="cls-2" d="M295.14,496.76l-15.22,5.7V427.3h15.22Z"/><path class="cls-2" d="M295.94,415.32l-13.07,7.6q.12-40.14.25-80.21l13.42.17Z"/><rect class="cls-4" x="433.02" y="498.77" width="2.01" height="7.38"/><path class="cls-5" d="M421.34,415.21l-125.4.11.65-75.68,125.21.05Q421.59,377.45,421.34,415.21Z"/><path class="cls-5" d="M421.74,496.66l-126.6.1V427.3l126.93-.48Z"/><rect class="cls-5" x="295.17" y="510.84" width="127.58" height="54.35"/><path class="cls-6" d="M420.94,418.46H293.81v-2.83Z"/><path class="cls-7" d="M283.41,583.65h-3.49V508.49h3Z"/><rect class="cls-7" x="435.04" y="341.67" width="3.89" height="79.89"/><rect class="cls-7" x="435.03" y="508.49" width="3.89" height="75.16"/><path class="cls-2" d="M435.75,503l-14-6.31.37-69.84,13.62.23Z"/><path class="cls-2" d="M295.14,510.84V565.2L283,583.63V510.84Z"/><path class="cls-2" d="M435,583.65l-12.28-18.43V510.84l12.28,0Z"/><path class="cls-2" d="M421.74,496.66H295l-15.05,5.8q39.6.36,79.21.35,38,0,75.92-.35Z"/><path class="cls-2" d="M435,583.65H283.41l12.11-18.43H422.79Z"/><path class="cls-7" d="M439.17,595.74l-160.06-.29q.39-5.9.81-11.8h159C439,587.68,439.09,591.72,439.17,595.74Z"/><path class="cls-7" d="M438.92,510.79h-159v-8.33h159Z"/><rect class="cls-7" x="279.89" y="427.3" width="2.83" height="75.16"/><rect class="cls-7" x="435.03" y="425.63" width="3.89" height="76.83"/><path class="cls-7" d="M438.92,427.25l-159,.05v-5.8l159,.06Z"/><rect class="cls-7" x="279.74" y="337.47" width="3.13" height="85.45"/><path class="cls-7" d="M438.92,342.83q-40,.29-80,.28-39.5,0-79-.28V334.7h159Z"/><path class="cls-2" d="M437.2,422.25l-157.28.18,17.19-8.16,124.9.32Z"/></g><g id="Artwork_3-2" data-name="Artwork 3"><path class="cls-2" d="M168,421.9,153.94,416l.48-72.67,13.62-.89Z"/><path class="cls-3" d="M28.15,420.23,16,420.49q0-38.46.08-76.92l11.68.25Z"/><path class="cls-2" d="M28.15,497.1l-15.23,5.7V427.64H28.15Z"/><path class="cls-2" d="M29,415.66l-13.07,7.6q.12-40.14.25-80.21l13.42.17Z"/><rect class="cls-4" x="166.03" y="499.11" width="2.01" height="7.38"/><path class="cls-5" d="M154.34,415.55,29,415.66,29.6,340l125.21,0Q154.58,377.79,154.34,415.55Z"/><path class="cls-5" d="M154.74,497l-126.59.1V427.64l126.92-.48Q154.92,462.08,154.74,497Z"/><rect class="cls-5" x="28.18" y="511.18" width="127.58" height="54.35"/><path class="cls-6" d="M153.94,418.81H26.82V416Z"/><path class="cls-7" d="M16.42,584h-3.5V508.83H16Z"/><rect class="cls-7" x="168.04" y="342.01" width="3.89" height="79.89"/><rect class="cls-7" x="168.04" y="508.83" width="3.89" height="75.16"/><path class="cls-2" d="M168.76,503.31l-14-6.31.37-69.84,13.62.23Z"/><path class="cls-2" d="M28.15,511.18v54.36L16,584V511.18Z"/><path class="cls-2" d="M168,584l-12.28-18.43V511.18l12.28-.05Z"/><path class="cls-2" d="M154.74,497H28l-15.06,5.8q39.61.36,79.21.35,38,0,75.93-.35Z"/><path class="cls-2" d="M168,584H16.42l12.11-18.43H155.79Z"/><path class="cls-7" d="M172.18,596.08l-160.06-.29q.39-5.89.8-11.8h159Q172,590.05,172.18,596.08Z"/><path class="cls-7" d="M171.93,511.13h-159V502.8h159Z"/><rect class="cls-7" x="12.9" y="427.64" width="2.83" height="75.16"/><rect class="cls-7" x="168.04" y="425.97" width="3.89" height="76.83"/><path class="cls-7" d="M171.93,427.6l-159,0v-5.8l159,.06Z"/><rect class="cls-7" x="12.75" y="337.81" width="3.13" height="85.45"/><path class="cls-7" d="M171.93,343.17q-40,.29-80,.29-39.5,0-79-.29V335h159Z"/><path class="cls-2" d="M170.21,422.6l-157.29.17,17.2-8.16,124.9.32Z"/></g><g id="Artwork_3-3" data-name="Artwork 3"><path class="cls-2" d="M704.09,421.22,690,415.29l.48-72.68,13.62-.89Z"/><path class="cls-3" d="M564.19,419.55l-12.14.26q0-38.46.08-76.92l11.68.25Z"/><path class="cls-2" d="M564.19,496.42,549,502.12V427h15.22Z"/><path class="cls-2" d="M565,415l-13.06,7.6q.12-40.14.24-80.21l13.42.17Z"/><rect class="cls-4" x="702.07" y="498.43" width="2.01" height="7.38"/><path class="cls-5" d="M690.39,414.87,565,415l.65-75.68,125.21.05Q690.64,377.1,690.39,414.87Z"/><path class="cls-5" d="M690.79,496.32l-126.6.1V427l126.93-.48Z"/><rect class="cls-5" x="564.22" y="510.5" width="127.58" height="54.35"/><path class="cls-6" d="M690,418.12H562.86v-2.83Z"/><path class="cls-7" d="M552.46,583.31H549V508.15h3Q552.25,545.74,552.46,583.31Z"/><rect class="cls-7" x="704.09" y="341.33" width="3.89" height="79.89"/><rect class="cls-7" x="704.08" y="508.15" width="3.89" height="75.16"/><path class="cls-2" d="M704.8,502.62l-14-6.3.37-69.84,13.62.23Z"/><path class="cls-2" d="M564.19,510.5v54.36l-12.14,18.43V510.5Z"/><path class="cls-2" d="M704.08,583.31l-12.27-18.43V510.5l12.27-.05Z"/><path class="cls-2" d="M690.79,496.32H564l-15,5.8q39.6.36,79.21.35,38,0,75.93-.35Z"/><path class="cls-2" d="M704.08,583.31H552.46l12.12-18.43H691.84Z"/><path class="cls-7" d="M708.23,595.4l-160.06-.29q.38-5.9.8-11.8H708Q708.1,589.36,708.23,595.4Z"/><path class="cls-7" d="M708,510.45H549v-8.33H708Z"/><rect class="cls-7" x="548.94" y="426.96" width="2.83" height="75.16"/><rect class="cls-7" x="704.08" y="425.29" width="3.89" height="76.83"/><path class="cls-7" d="M708,426.91l-159,0v-5.8l159,.06Z"/><rect class="cls-7" x="548.79" y="337.13" width="3.13" height="85.45"/><path class="cls-7" d="M708,342.49q-40,.28-80,.28-39.51,0-79-.28v-8.13H708Z"/><path class="cls-2" d="M706.25,421.91,549,422.09l17.19-8.16,124.9.32Z"/></g><rect class="cls-8" x="542.8" y="38.8" width="91.7" height="113.57"/><rect class="cls-8" x="373.2" y="38.8" width="91.7" height="113.57"/><rect class="cls-8" x="198.8" y="38.8" width="91.7" height="113.57"/><rect class="cls-8" x="27.35" y="38.8" width="91.7" height="113.57"/></svg>