<svg id="Layer_1" data-name="Layer 1" xmlns="http://www.w3.org/2000/svg" xmlns:xlink="http://www.w3.org/1999/xlink" viewBox="0 0 718.83 595.28"><defs><style>.cls-1{fill:url(#linear-gradient);}.cls-14,.cls-2,.cls-6{opacity:0.5;}.cls-2{fill:url(#linear-gradient-2);}.cls-10,.cls-17,.cls-3,.cls-9{stroke:#231f20;stroke-miterlimit:10;}.cls-3{fill:url(#linear-gradient-3);}.cls-18,.cls-4{fill:#231f20;}.cls-5{fill:url(#linear-gradient-4);}.cls-6{fill:url(#linear-gradient-5);}.cls-7{fill:url(#linear-gradient-6);}.cls-8{fill:url(#linear-gradient-7);}.cls-9{fill:url(#linear-gradient-8);}.cls-10{fill:url(#linear-gradient-9);}.cls-11{fill:#865f43;}.cls-12{fill:#735439;opacity:0.21;}.cls-12,.cls-14{isolation:isolate;}.cls-13{fill:#a97d58;}.cls-14{fill:#f47721;}.cls-15{fill:#8b6848;}.cls-16{fill:#9d6a28;}.cls-17{fill:none;stroke-width:13px;}.cls-18{font-size:55.27px;font-family:MyriadPro-Regular, Myriad Pro;letter-spacing:-0.01em;}.cls-19{letter-spacing:0em;}</style><linearGradient id="linear-gradient" x1="27.64" y1="225.6" x2="532.45" y2="225.6" gradientTransform="matrix(-1.42, 0, 0, -1.4, 757.42, 617.26)" gradientUnits="userSpaceOnUse"><stop offset="0" stop-color="#1d6cb6"/><stop offset="0" stop-color="#145186"/><stop offset="0" stop-color="#0e3d62"/><stop offset="0" stop-color="#0b3555"/></linearGradient><linearGradient id="linear-gradient-2" x1="699.89" y1="279.95" x2="313.79" y2="279.95" gradientUnits="userSpaceOnUse"><stop offset="0" stop-color="#00aeef" stop-opacity="0.5"/><stop offset="0.29" stop-color="#0676a8" stop-opacity="0.73"/><stop offset="0.67" stop-color="#0b466b" stop-opacity="0.93"/><stop offset="1" stop-color="#0d3556"/></linearGradient><linearGradient id="linear-gradient-3" x1="346.22" y1="548.77" x2="359.42" y2="548.77" gradientTransform="translate(-192.83 906.4) rotate(-90.5)" gradientUnits="userSpaceOnUse"><stop offset="0" stop-color="#3c2415"/><stop offset="1" stop-color="#754c29"/></linearGradient><linearGradient id="linear-gradient-4" x1="632.23" y1="274.03" x2="509.73" y2="274.03" gradientUnits="userSpaceOnUse"><stop offset="0" stop-color="#00aeef"/><stop offset="0" stop-color="#038ec7"/><stop offset="0" stop-color="#076e9f"/><stop offset="0" stop-color="#0a557f"/><stop offset="0" stop-color="#0b4368"/><stop offset="0" stop-color="#0d395b"/><stop offset="0" stop-color="#0d3556"/></linearGradient><linearGradient id="linear-gradient-5" x1="699.89" y1="535.07" x2="565.47" y2="535.07" gradientUnits="userSpaceOnUse"><stop offset="0" stop-color="#00aeef" stop-opacity="0.5"/><stop offset="0.56" stop-color="#01a7e7" stop-opacity="0.53"/><stop offset="0.76" stop-color="#038fc8" stop-opacity="0.63"/><stop offset="0.9" stop-color="#086593" stop-opacity="0.8"/><stop offset="1" stop-color="#0d3556"/></linearGradient><linearGradient id="linear-gradient-6" x1="505.63" y1="286.24" x2="513.75" y2="286.24" gradientUnits="userSpaceOnUse"><stop offset="0" stop-color="#1f5c96"/><stop offset="0" stop-color="#1e5992"/><stop offset="0.01" stop-color="#184c7c"/><stop offset="0.01" stop-color="#13426b"/><stop offset="0.02" stop-color="#0f3a5f"/><stop offset="0.02" stop-color="#0e3658"/><stop offset="0.04" stop-color="#0d3556"/><stop offset="0.18" stop-color="#0d3556"/><stop offset="1" stop-color="#0d3556"/></linearGradient><linearGradient id="linear-gradient-7" x1="616.78" y1="285.85" x2="623.22" y2="285.85" gradientUnits="userSpaceOnUse"><stop offset="0" stop-color="#fff"/><stop offset="0" stop-color="#d5dce2"/><stop offset="0" stop-color="#abb9c5"/><stop offset="0" stop-color="#8599aa"/><stop offset="0" stop-color="#657e93"/><stop offset="0" stop-color="#496780"/><stop offset="0" stop-color="#335570"/><stop offset="0" stop-color="#224664"/><stop offset="0" stop-color="#163c5c"/><stop offset="0" stop-color="#0f3757"/><stop offset="0" stop-color="#0d3556"/><stop offset="0.14" stop-color="#0d3556"/><stop offset="1" stop-color="#0d3556"/></linearGradient><linearGradient id="linear-gradient-8" x1="553.92" y1="549.53" x2="567.11" y2="549.53" gradientTransform="translate(15.93 1114.85) rotate(-90.5)" xlink:href="#linear-gradient-3"/><linearGradient id="linear-gradient-9" x1="313.79" y1="466.37" x2="600.7" y2="466.37" gradientTransform="matrix(1, 0, 0, 1, 0, 0)" xlink:href="#linear-gradient-3"/></defs><path class="cls-1" d="M.76,0,719.09.58l-2.88,601.47L-.26,600.91Z"/><path class="cls-2" d="M698.7,460.64l-384.91,0L699.89,99.26"/><rect class="cls-3" x="276.19" y="542.85" width="153.26" height="11.85" transform="matrix(-0.01, 1, -1, -0.01, 904.67, 200.79)"/><rect class="cls-4" x="493.61" y="270.84" width="138.62" height="6.39"/><rect class="cls-4" x="505.63" y="277.23" width="8.12" height="17.23"/><rect class="cls-4" x="616.78" y="277.23" width="6.44" height="17.23"/><path class="cls-5" d="M516.74,270.84l-7,6.39h122.5v-6.39Z"/><path class="cls-6" d="M604.43,460.64h92.44l.46,71.94q1.27,38.46,2.56,76.93H565.47l2.16-132.59q1.57-7.64,3.14-15.27Z"/><path class="cls-7" d="M505.63,281.53l4.1-4.3h4v18h-8.12Z"/><rect class="cls-8" x="616.78" y="277.23" width="6.44" height="17.23"/><rect class="cls-9" x="483.88" y="543.61" width="153.26" height="11.85" transform="translate(1114.95 -6.13) rotate(90.5)"/><rect class="cls-10" x="313.79" y="460.64" width="286.91" height="11.46"/><g id="Artwork_3" data-name="Artwork 3"><path class="cls-11" d="M256.26,356.63l-20.77-8.09.71-99.23,20.06-1.21Q256.25,302.35,256.26,356.63Z"/><path class="cls-12" d="M50.21,354.36l-17.89.35q.07-52.51.12-105l17.21.35Z"/><path class="cls-11" d="M50.21,459.31,27.79,467.1V364.48H50.21Z"/><path class="cls-11" d="M51.39,348.12,32.15,358.49q.18-54.81.36-109.51l19.77.23Z"/><rect class="cls-13" x="253.29" y="462.05" width="2.96" height="10.08"/><path class="cls-14" d="M236.08,348l-184.69.15,1-103.34,184.41.07Q236.45,296.41,236.08,348Z"/><path class="cls-14" d="M236.67,459.18l-186.46.13V364.48l186.94-.66Q236.93,411.51,236.67,459.18Z"/><rect class="cls-14" x="50.26" y="478.54" width="187.89" height="74.21"/><path class="cls-15" d="M235.49,352.41H48.26v-3.87Z"/><path class="cls-16" d="M32.94,578H27.79V475.33h4.49Q32.63,526.65,32.94,578Z"/><rect class="cls-16" x="256.26" y="247.56" width="5.72" height="109.07"/><rect class="cls-16" x="256.25" y="475.33" width="5.72" height="102.62"/><path class="cls-11" d="M257.31,467.79l-20.64-8.61.54-95.36,20.06.31Z"/><path class="cls-11" d="M50.21,478.54v74.22L32.32,577.92V478.54Z"/><path class="cls-11" d="M256.25,578l-18.08-25.16V478.54l18.08-.07Z"/><path class="cls-11" d="M236.67,459.18H50L27.79,467.1q58.34.5,116.67.48,55.9,0,111.82-.48Z"/><path class="cls-11" d="M256.25,578H32.94l17.84-25.16H238.22Z"/><path class="cls-16" d="M262.35,594.46l-235.74-.39Q27.18,586,27.79,578H262Q262.16,586.22,262.35,594.46Z"/><path class="cls-16" d="M262,478.47H27.79V467.1H262Z"/><rect class="cls-16" x="27.76" y="364.48" width="4.17" height="102.62"/><rect class="cls-16" x="256.25" y="362.19" width="5.72" height="104.91"/><path class="cls-16" d="M262,364.41l-234.19.07v-7.92l234.23.07Z"/><rect class="cls-16" x="27.53" y="241.83" width="4.61" height="116.67"/><path class="cls-16" d="M262,249.14q-58.92.39-117.87.39-58.17,0-116.35-.39V238H262Z"/><path class="cls-11" d="M259.45,357.59l-231.66.24,25.33-11.14,184,.43Z"/></g><rect class="cls-17" x="54.48" y="55.19" width="91.7" height="113.57"/><text class="cls-18" transform="translate(323.76 124.52) scale(1.05 1)">L<tspan class="cls-19" x="25.31" y="0">ogo</tspan></text></svg>